{"title":"Toy Story 3 1080P BluRay Dual Audio [5.1Hin+5.1Eng] ~ Ashish7(wa","uid":7481854,"size":3297830743,"categoryP":"video","categoryS":"hd___movies","magnet":"?xt=urn:btih:c1ed8093b7c2553bd784ffa4a59578b088c3ea2c&amp;dn=Toy+Story+3+1080P+BluRay+Dual+Audio+%5B5.1Hin%2B5.1Eng%5D+%7E+Ashish7%28wa&amp;tr=udp%3A%2F%2Ftracker.openbittorrent.com%3A80&amp;tr=udp%3A%2F%2Fopen.demonii.com%3A1337&amp;tr=udp%3A%2F%2Ftracker.coppersurfer.tk%3A6969&amp;tr=udp%3A%2F%2Fexodus.desync.com%3A6969","seeders":2,"leechers":1,"uploader":"wall.e","files":19,"time":1343458754,"description":"Format                           : Matroska\nFile size                        : 3.04 GiB\nDuration                         : 1h 39mn\nOverall bit rate                 : 4378 Kbps\n\nVideo\nID                               : 1\nFormat                           : AVC\nFormat/Info                      : Advanced Video Codec\nBit rate                         : 3496 Kbps\nMaximum bit rate                 : 25.0 Mbps\nWidth                            : 1920 pixels\nHeight                           : 1080 pixels\nDisplay aspect ratio             : 16:9\nFrame rate                       : 25.000 fps\nColor space                      : YUV\nChroma subsampling               : 4:2:0\nStream size                      : 2.44 GiB (80%)\nTitle                            : Full HD 1080P BluRay ~ Ashish7(wall.e)\n\nAudio #1\nID                               : 2\nFormat                           : AC-3\nFormat/Info                      : Audio Coding 3\nBit rate                         : 384 Kbps\nChannel(s)                       : 6 channels\nChannel positions                : Front: L C R, Side: L R, LFE\nSampling rate                    : 48.0 KHz\nBit depth                        : 16 bits\nStream size                      : 273 MiB (9%)\nTitle                            : 5.1 Hindi Audio ~ Ashish7(wall.e)\n\nAudio #2\nID                               : 3\nFormat                           : AC-3\nFormat/Info                      : Audio Coding 3\nBit rate                         : 384 Kbps\nChannel(s)                       : 6 channels\nChannel positions                : Front: L C R, Side: L R, LFE\nSampling rate                    : 48.0 KHz\nBit depth                        : 16 bits\nStream size                      : 273 MiB (9%)\nTitle                            : 5.1 English Audio ~ Ashish7(wall.e)","torrent":{"xt":"urn:btih:c1ed8093b7c2553bd784ffa4a59578b088c3ea2c","amp;dn":"Toy+Story+3+1080P+BluRay+Dual+Audio+%5B5.1Hin%2B5.1Eng%5D+%7E+Ashish7%28wa","amp;tr":["udp%3A%2F%2Ftracker.openbittorrent.com%3A80","udp%3A%2F%2Fopen.demonii.com%3A1337","udp%3A%2F%2Ftracker.coppersurfer.tk%3A6969","udp%3A%2F%2Fexodus.desync.com%3A6969"],"infoHash":"c1ed8093b7c2553bd784ffa4a59578b088c3ea2c","infoHashBuffer":{"type":"Buffer","data":[193,237,128,147,183,194,85,59,215,132,255,164,165,149,120,176,136,195,234,44]},"announce":[],"urlList":[]}}